<svg viewBox="0 0 120 120" xmlns="http://www.w3.org/2000/svg">
<title>鳩のイラスト</title>
<path d="M18 69C31 67 37 59 44 51C48 42 50 28 59 17C66 31 67 44 66 53C76 45 87 40 104 39C96 55 86 67 72 72C82 78 89 86 93 99C78 96 68 91 59 83C48 88 35 87 25 81Z" fill="#FCFBF7" stroke="#1C1C1A" stroke-width="3" stroke-linecap="round" stroke-linejoin="round"/>
<path d="M45 51C50 57 55 61 66 63M66 53C64 61 63 67 59 83M72 72C80 69 87 65 93 59" fill="none" stroke="#3A6EA5" stroke-width="3" stroke-linecap="round" stroke-linejoin="round"/>
<path d="M24 66L11 60L20 76" fill="#C98B5E" stroke="#1C1C1A" stroke-width="3" stroke-linecap="round" stroke-linejoin="round"/>
<circle cx="31" cy="67" r="2" fill="#1C1C1A"/>
</svg>
