<svg xmlns="http://www.w3.org/2000/svg" viewBox="0 0 1600 490"><title>HPの４つの入口用ポーズ</title><rect x="0" y="0" width="1600" height="490" rx="0" fill="#FCFBF7"/><rect x="16" y="20" width="368" height="446" rx="24" fill="#EAF1E0"/><g transform="translate(88 60) scale(2.30)"><g stroke="#1C1C1A" stroke-width="2.2" stroke-linecap="round" stroke-linejoin="round"><rect xmlns="http://www.w3.org/2000/svg" x="35" y="94" width="10" height="24" rx="5" fill="#F6D8B8" />
<rect xmlns="http://www.w3.org/2000/svg" x="51" y="94" width="10" height="24" rx="5" fill="#F6D8B8" />
<path xmlns="http://www.w3.org/2000/svg" d="M33 110h11a1 1 0 0 1 1 1v4a3 3 0 0 1-3 3H32a3 3 0 0 1-3-3v-2a3 3 0 0 1 3-3z" fill="#FCFBF7" />
<path xmlns="http://www.w3.org/2000/svg" d="M63 110H52a1 1 0 0 0-1 1v4a3 3 0 0 0 3 3h9a3 3 0 0 0 3-3v-2a3 3 0 0 0-3-3z" fill="#FCFBF7" />
<path xmlns="http://www.w3.org/2000/svg" d="M33 115h10M53 115h10" fill="none" stroke="#1C1C1A" stroke-width="1.2" /><path d="M28 64Q9 71 12 52L19 44" fill="none" stroke="#1C1C1A" stroke-width="12"/><path d="M28 64Q9 71 12 52L19 44" fill="none" stroke="#F6D8B8" stroke-width="7.8"/><path d="M68 64Q78 77 88 72" fill="none" stroke="#1C1C1A" stroke-width="12"/><path d="M68 64Q78 77 88 72" fill="none" stroke="#F6D8B8" stroke-width="7.8"/><path xmlns="http://www.w3.org/2000/svg" d="M48 52c-14 0-22 8-22 19v29h44V71c0-11-8-19-22-19z" fill="#1F5C3F" />
<path xmlns="http://www.w3.org/2000/svg" d="M48 56v18" fill="none" stroke="#FCFBF7" />
<path xmlns="http://www.w3.org/2000/svg" d="M52 58l-4 5-4-5" fill="none" stroke="#FCFBF7" stroke-width="1.6" /><g transform="rotate(-5 48 50)"><circle xmlns="http://www.w3.org/2000/svg" cx="48" cy="30" r="25" fill="#F6D8B8" />
<path xmlns="http://www.w3.org/2000/svg" d="M22 28C22 14 33 5 48 5c15 0 25 9 26 23l-7-6-2 5-4-10c-7 7-17 9-28 8l4-6c-5 3-10 6-15 9z" fill="#1C1C1A" stroke="none" />
<ellipse xmlns="http://www.w3.org/2000/svg" cx="39" cy="32" fill="#1C1C1A" stroke="none" rx="2.65" ry="3.45" />
<ellipse xmlns="http://www.w3.org/2000/svg" cx="57" cy="32" fill="#1C1C1A" stroke="none" rx="2.65" ry="3.45" />
<path xmlns="http://www.w3.org/2000/svg" d="M42 41q6 6 12 0" fill="none" stroke="#1C1C1A" stroke-width="1.8" />
<circle xmlns="http://www.w3.org/2000/svg" cx="30" cy="38" r="2.8" fill="#D2552A" stroke="none" opacity=".65" />
<circle xmlns="http://www.w3.org/2000/svg" cx="66" cy="38" r="2.8" fill="#D2552A" stroke="none" opacity=".65" />
<path xmlns="http://www.w3.org/2000/svg" d="M35 25q4-2 7 0M54 25q4-2 7 0" fill="none" stroke-width="1.6" /></g></g></g><text x="200" y="380" font-family="Hiragino Sans, sans-serif" font-size="24" text-anchor="middle" fill="#1F5C3F" stroke="none">学活くん</text><text x="200" y="426" font-family="Hiragino Sans, sans-serif" font-size="25" text-anchor="middle" fill="#1C1C1A" stroke="none">ちょっと聞きたい</text><rect x="416" y="20" width="368" height="446" rx="24" fill="#F8E5D8"/><g transform="translate(488 60) scale(2.30)"><g stroke="#1C1C1A" stroke-width="2.2" stroke-linecap="round" stroke-linejoin="round"><rect xmlns="http://www.w3.org/2000/svg" x="35" y="94" width="10" height="24" rx="5" fill="#F6D8B8" />
<rect xmlns="http://www.w3.org/2000/svg" x="51" y="94" width="10" height="24" rx="5" fill="#F6D8B8" />
<path xmlns="http://www.w3.org/2000/svg" d="M33 110h11a1 1 0 0 1 1 1v4a3 3 0 0 1-3 3H32a3 3 0 0 1-3-3v-2a3 3 0 0 1 3-3z" fill="#FCFBF7" />
<path xmlns="http://www.w3.org/2000/svg" d="M63 110H52a1 1 0 0 0-1 1v4a3 3 0 0 0 3 3h9a3 3 0 0 0 3-3v-2a3 3 0 0 0-3-3z" fill="#FCFBF7" />
<path xmlns="http://www.w3.org/2000/svg" d="M33 115h10M53 115h10" fill="none" stroke="#1C1C1A" stroke-width="1.2" /><path d="M28 64Q12 71 7 91" fill="none" stroke="#1C1C1A" stroke-width="12"/><path d="M28 64Q12 71 7 91" fill="none" stroke="#F6D8B8" stroke-width="7.8"/><path d="M68 64Q67 80 53 91" fill="none" stroke="#1C1C1A" stroke-width="12"/><path d="M68 64Q67 80 53 91" fill="none" stroke="#F6D8B8" stroke-width="7.8"/><path xmlns="http://www.w3.org/2000/svg" d="M48 52c-14 0-22 8-22 19v29h44V71c0-11-8-19-22-19z" fill="#D2552A" />
<path xmlns="http://www.w3.org/2000/svg" d="M32 66h32" fill="none" stroke="#FCFBF7" />
<path xmlns="http://www.w3.org/2000/svg" d="M30 94h36" fill="none" stroke="#FCFBF7" stroke-width="1.4" /><g transform="rotate(0 48 50)"><circle xmlns="http://www.w3.org/2000/svg" cx="48" cy="30" r="25" fill="#F6D8B8" />
<path xmlns="http://www.w3.org/2000/svg" d="M22 28C22 14 33 5 48 5c15 0 25 9 26 23l-7-6-2 5-4-10c-7 7-17 9-28 8l4-6c-5 3-10 6-15 9z" fill="#1C1C1A" stroke="none" />
<path xmlns="http://www.w3.org/2000/svg" d="M23 25c5-7 14-11 25-11s20 4 25 11c-1 3-2 5-3 7-6-6-13-9-22-9s-16 3-22 9c-1-2-2-4-3-7z" fill="#FCFBF7" />
<path xmlns="http://www.w3.org/2000/svg" d="M22 27l-8 3M22 31l-7 6" fill="none" />
<ellipse xmlns="http://www.w3.org/2000/svg" cx="39" cy="34" fill="#1C1C1A" stroke="none" rx="2.65" ry="3.45" />
<ellipse xmlns="http://www.w3.org/2000/svg" cx="57" cy="34" fill="#1C1C1A" stroke="none" rx="2.65" ry="3.45" />
<path xmlns="http://www.w3.org/2000/svg" d="M41 42q7 8 14 0" fill="none" stroke="#1C1C1A" stroke-width="1.8" />
<circle xmlns="http://www.w3.org/2000/svg" cx="30" cy="40" r="2.8" fill="#D2552A" stroke="none" opacity=".65" />
<circle xmlns="http://www.w3.org/2000/svg" cx="66" cy="40" r="2.8" fill="#D2552A" stroke="none" opacity=".65" />
</g><rect x="4" y="71" width="50" height="38" rx="2" fill="#FCFBF7"/><rect x="4" y="71" width="50" height="10" rx="2" fill="#D2552A"/><path d="M15 67v10M42 67v10" fill="none" stroke="#1C1C1A" stroke-width="3"/><rect x="12" y="86" width="6" height="5" rx="0" fill="#B4D9E5"/><rect x="12" y="97" width="6" height="5" rx="0" fill="#B4D9E5"/><rect x="25" y="86" width="6" height="5" rx="0" fill="#B4D9E5"/><rect x="25" y="97" width="6" height="5" rx="0" fill="#E8C547"/><rect x="38" y="86" width="6" height="5" rx="0" fill="#B4D9E5"/><rect x="38" y="97" width="6" height="5" rx="0" fill="#B4D9E5"/><circle cx="28" cy="99" r="6" fill="none"/><circle cx="6" cy="93" r="4.5" fill="#F6D8B8"/><circle cx="54" cy="93" r="4.5" fill="#F6D8B8"/></g></g><text x="600" y="380" font-family="Hiragino Sans, sans-serif" font-size="24" text-anchor="middle" fill="#D2552A" stroke="none">行人</text><text x="600" y="426" font-family="Hiragino Sans, sans-serif" font-size="25" text-anchor="middle" fill="#1C1C1A" stroke="none">ちょっと知りたい</text><rect x="816" y="20" width="368" height="446" rx="24" fill="#E4EFF3"/><g transform="translate(888 60) scale(2.30)"><g stroke="#1C1C1A" stroke-width="2.2" stroke-linecap="round" stroke-linejoin="round"><rect xmlns="http://www.w3.org/2000/svg" x="35" y="94" width="10" height="24" rx="5" fill="#F6D8B8" />
<rect xmlns="http://www.w3.org/2000/svg" x="51" y="94" width="10" height="24" rx="5" fill="#F6D8B8" />
<path xmlns="http://www.w3.org/2000/svg" d="M33 110h11a1 1 0 0 1 1 1v4a3 3 0 0 1-3 3H32a3 3 0 0 1-3-3v-2a3 3 0 0 1 3-3z" fill="#FCFBF7" />
<path xmlns="http://www.w3.org/2000/svg" d="M63 110H52a1 1 0 0 0-1 1v4a3 3 0 0 0 3 3h9a3 3 0 0 0 3-3v-2a3 3 0 0 0-3-3z" fill="#FCFBF7" />
<path xmlns="http://www.w3.org/2000/svg" d="M33 115h10M53 115h10" fill="none" stroke="#1C1C1A" stroke-width="1.2" /><path d="M28 64Q15 77 15 86" fill="none" stroke="#1C1C1A" stroke-width="12"/><path d="M28 64Q15 77 15 86" fill="none" stroke="#F6D8B8" stroke-width="7.8"/><path d="M68 64Q86 79 84 88" fill="none" stroke="#1C1C1A" stroke-width="12"/><path d="M68 64Q86 79 84 88" fill="none" stroke="#F6D8B8" stroke-width="7.8"/><path xmlns="http://www.w3.org/2000/svg" d="M48 52c-15 0-23 8-23 19l-2 29h50l-2-29c0-11-8-19-23-19z" fill="#3A6EA5" />
<path xmlns="http://www.w3.org/2000/svg" d="M32 55h10l26 41H58z" fill="#E8C547" />
<path xmlns="http://www.w3.org/2000/svg" d="M26 96h44" fill="none" stroke="#FCFBF7" stroke-width="1.3" /><g transform="rotate(0 48 50)"><circle xmlns="http://www.w3.org/2000/svg" cx="48" cy="30" r="25" fill="#F6D8B8" />
<path xmlns="http://www.w3.org/2000/svg" d="M22 28C22 14 33 5 48 5c15 0 25 9 26 23l-7-6-2 5-4-10c-7 7-17 9-28 8l4-6c-5 3-10 6-15 9z" fill="#1C1C1A" stroke="none" />
<circle xmlns="http://www.w3.org/2000/svg" cx="19" cy="38" r="8.5" fill="#1C1C1A" />
<circle xmlns="http://www.w3.org/2000/svg" cx="77" cy="38" r="8.5" fill="#1C1C1A" />
<ellipse xmlns="http://www.w3.org/2000/svg" cx="39" cy="33" fill="#1C1C1A" stroke="none" rx="2.65" ry="3.45" />
<ellipse xmlns="http://www.w3.org/2000/svg" cx="57" cy="33" fill="#1C1C1A" stroke="none" rx="2.65" ry="3.45" />
<path xmlns="http://www.w3.org/2000/svg" d="M42 42q6 6 12 0" fill="none" stroke="#1C1C1A" stroke-width="1.8" />
<circle xmlns="http://www.w3.org/2000/svg" cx="30" cy="39" r="2.8" fill="#D2552A" stroke="none" opacity=".65" />
<circle xmlns="http://www.w3.org/2000/svg" cx="66" cy="39" r="2.8" fill="#D2552A" stroke="none" opacity=".65" />
</g><rect x="54" y="68" width="34" height="42" rx="2" fill="#FCFBF7"/><rect x="60" y="76" width="22" height="11" rx="1" fill="#B4D9E5"/><path d="M60 94h22M60 101h15" fill="none" stroke="#3A6EA5" stroke-width="1.8"/><circle cx="85" cy="88" r="4.5" fill="#F6D8B8"/></g></g><text x="1000" y="380" font-family="Hiragino Sans, sans-serif" font-size="24" text-anchor="middle" fill="#3A6EA5" stroke="none">児童会ちゃん</text><text x="1000" y="426" font-family="Hiragino Sans, sans-serif" font-size="25" text-anchor="middle" fill="#1C1C1A" stroke="none">ちょっと伝えたい</text><rect x="1216" y="20" width="368" height="446" rx="24" fill="#FBF0C5"/><g transform="translate(1288 60) scale(2.30)"><g stroke="#1C1C1A" stroke-width="2.2" stroke-linecap="round" stroke-linejoin="round"><path xmlns="http://www.w3.org/2000/svg" d="M32 56C18 66 12 84 14 102l34-8 34 8c2-18-4-36-18-46z" fill="#D2552A" />
<path xmlns="http://www.w3.org/2000/svg" d="M25 75l-5 18M71 75l5 18" fill="none" stroke-width="1.2" /><rect xmlns="http://www.w3.org/2000/svg" x="35" y="94" width="10" height="24" rx="5" fill="#F6D8B8" />
<rect xmlns="http://www.w3.org/2000/svg" x="51" y="94" width="10" height="24" rx="5" fill="#F6D8B8" />
<path xmlns="http://www.w3.org/2000/svg" d="M33 110h11a1 1 0 0 1 1 1v4a3 3 0 0 1-3 3H32a3 3 0 0 1-3-3v-2a3 3 0 0 1 3-3z" fill="#FCFBF7" />
<path xmlns="http://www.w3.org/2000/svg" d="M63 110H52a1 1 0 0 0-1 1v4a3 3 0 0 0 3 3h9a3 3 0 0 0 3-3v-2a3 3 0 0 0-3-3z" fill="#FCFBF7" />
<path xmlns="http://www.w3.org/2000/svg" d="M33 115h10M53 115h10" fill="none" stroke="#1C1C1A" stroke-width="1.2" /><path d="M28 64Q18 75 19 86" fill="none" stroke="#1C1C1A" stroke-width="12"/><path d="M28 64Q18 75 19 86" fill="none" stroke="#F6D8B8" stroke-width="7.8"/><path d="M68 64Q89 66 94 55" fill="none" stroke="#1C1C1A" stroke-width="12"/><path d="M68 64Q89 66 94 55" fill="none" stroke="#F6D8B8" stroke-width="7.8"/><path xmlns="http://www.w3.org/2000/svg" d="M48 52c-14 0-22 8-22 19v29h44V71c0-11-8-19-22-19z" fill="#E8C547" />
<path xmlns="http://www.w3.org/2000/svg" d="M48 67l2.7 7.3 7.8.3-6.1 4.8 2.1 7.5-6.5-4.3-6.5 4.3 2.1-7.5-6.1-4.8 7.8-.3z" fill="#FCFBF7" />
<g transform="rotate(0 48 50)"><circle xmlns="http://www.w3.org/2000/svg" cx="48" cy="30" r="25" fill="#F6D8B8" />
<path xmlns="http://www.w3.org/2000/svg" d="M22 28C22 14 33 5 48 5c15 0 25 9 26 23l-7-6-2 5-4-10c-7 7-17 9-28 8l4-6c-5 3-10 6-15 9z" fill="#1C1C1A" stroke="none" />
<path xmlns="http://www.w3.org/2000/svg" d="M23 24c6-6 15-9 25-9s19 3 25 9l-3 8c-6-6-13-9-22-9s-16 3-22 9z" fill="#3A6EA5" />
<ellipse xmlns="http://www.w3.org/2000/svg" cx="39" cy="35" fill="#1C1C1A" stroke="none" rx="2.65" ry="3.45" />
<ellipse xmlns="http://www.w3.org/2000/svg" cx="57" cy="35" fill="#1C1C1A" stroke="none" rx="2.65" ry="3.45" />
<path xmlns="http://www.w3.org/2000/svg" d="M41 42q7 8 14 0" fill="none" stroke="#1C1C1A" stroke-width="1.8" />
<circle xmlns="http://www.w3.org/2000/svg" cx="30" cy="41" r="2.8" fill="#D2552A" stroke="none" opacity=".65" />
<circle xmlns="http://www.w3.org/2000/svg" cx="66" cy="41" r="2.8" fill="#D2552A" stroke="none" opacity=".65" />
</g><g transform="translate(10 0)"><path d="M79 42Q66 34 71 20Q76 9 88 13Q104 18 95 34L90 42Z" fill="#E8C547" stroke="#1C1C1A" stroke-width="2.2"/><rect x="79" y="42" width="12" height="7" rx="2" fill="#FCFBF7"/><path d="M81 52h8M84 13V4M65 19l-7-4M101 18l7-4M66 36l-7 3M104 35l6 3" fill="none" stroke="#1C1C1A" stroke-width="1.8"/></g></g></g><text x="1400" y="380" font-family="Hiragino Sans, sans-serif" font-size="24" text-anchor="middle" fill="#80621D" stroke="none">クラブマン</text><text x="1400" y="426" font-family="Hiragino Sans, sans-serif" font-size="25" text-anchor="middle" fill="#1C1C1A" stroke="none">ちょっと試したい</text></svg>