<svg xmlns="http://www.w3.org/2000/svg" viewBox="0 0 1260 940"><title>児童会ちゃん の６ポーズ</title><rect x="0" y="0" width="1260" height="940" rx="0" fill="#FCFBF7"/><text x="630" y="63" font-family="Hiragino Sans, sans-serif" font-size="32" text-anchor="middle" fill="#1C1C1A" stroke="none">児童会ちゃん のポーズ集</text><rect x="30" y="102" width="380" height="366" rx="22" fill="#E4EFF3"/><g transform="translate(115 142) scale(2.1)"><g stroke="#1C1C1A" stroke-width="2.2" stroke-linecap="round" stroke-linejoin="round"><rect xmlns="http://www.w3.org/2000/svg" x="35" y="94" width="10" height="24" rx="5" fill="#F6D8B8" />
<rect xmlns="http://www.w3.org/2000/svg" x="51" y="94" width="10" height="24" rx="5" fill="#F6D8B8" />
<path xmlns="http://www.w3.org/2000/svg" d="M33 110h11a1 1 0 0 1 1 1v4a3 3 0 0 1-3 3H32a3 3 0 0 1-3-3v-2a3 3 0 0 1 3-3z" fill="#FCFBF7" />
<path xmlns="http://www.w3.org/2000/svg" d="M63 110H52a1 1 0 0 0-1 1v4a3 3 0 0 0 3 3h9a3 3 0 0 0 3-3v-2a3 3 0 0 0-3-3z" fill="#FCFBF7" />
<path xmlns="http://www.w3.org/2000/svg" d="M33 115h10M53 115h10" fill="none" stroke="#1C1C1A" stroke-width="1.2" /><path d="M28 64Q12 49 9 27" fill="none" stroke="#1C1C1A" stroke-width="12"/><path d="M28 64Q12 49 9 27" fill="none" stroke="#F6D8B8" stroke-width="7.8"/><path d="M68 64Q80 69 89 59" fill="none" stroke="#1C1C1A" stroke-width="12"/><path d="M68 64Q80 69 89 59" fill="none" stroke="#F6D8B8" stroke-width="7.8"/><path xmlns="http://www.w3.org/2000/svg" d="M48 52c-15 0-23 8-23 19l-2 29h50l-2-29c0-11-8-19-23-19z" fill="#3A6EA5" />
<path xmlns="http://www.w3.org/2000/svg" d="M32 55h10l26 41H58z" fill="#E8C547" />
<path xmlns="http://www.w3.org/2000/svg" d="M26 96h44" fill="none" stroke="#FCFBF7" stroke-width="1.3" /><g transform="rotate(0 48 50)"><circle xmlns="http://www.w3.org/2000/svg" cx="48" cy="30" r="25" fill="#F6D8B8" />
<path xmlns="http://www.w3.org/2000/svg" d="M22 28C22 14 33 5 48 5c15 0 25 9 26 23l-7-6-2 5-4-10c-7 7-17 9-28 8l4-6c-5 3-10 6-15 9z" fill="#1C1C1A" stroke="none" />
<circle xmlns="http://www.w3.org/2000/svg" cx="19" cy="38" r="8.5" fill="#1C1C1A" />
<circle xmlns="http://www.w3.org/2000/svg" cx="77" cy="38" r="8.5" fill="#1C1C1A" />
<ellipse xmlns="http://www.w3.org/2000/svg" cx="39" cy="33" fill="#1C1C1A" stroke="none" rx="2.65" ry="3.45" />
<ellipse xmlns="http://www.w3.org/2000/svg" cx="57" cy="33" fill="#1C1C1A" stroke="none" rx="2.65" ry="3.45" />
<path xmlns="http://www.w3.org/2000/svg" d="M42 42q6 6 12 0" fill="none" stroke="#1C1C1A" stroke-width="1.8" />
<circle xmlns="http://www.w3.org/2000/svg" cx="30" cy="39" r="2.8" fill="#D2552A" stroke="none" opacity=".65" />
<circle xmlns="http://www.w3.org/2000/svg" cx="66" cy="39" r="2.8" fill="#D2552A" stroke="none" opacity=".65" />
</g></g></g><text x="220" y="433" font-family="Hiragino Sans, sans-serif" font-size="24" text-anchor="middle" fill="#1C1C1A" stroke="none">ようこそ</text><rect x="440" y="102" width="380" height="366" rx="22" fill="#E4EFF3"/><g transform="translate(525 142) scale(2.1)"><g stroke="#1C1C1A" stroke-width="2.2" stroke-linecap="round" stroke-linejoin="round"><rect xmlns="http://www.w3.org/2000/svg" x="35" y="94" width="10" height="24" rx="5" fill="#F6D8B8" />
<rect xmlns="http://www.w3.org/2000/svg" x="51" y="94" width="10" height="24" rx="5" fill="#F6D8B8" />
<path xmlns="http://www.w3.org/2000/svg" d="M33 110h11a1 1 0 0 1 1 1v4a3 3 0 0 1-3 3H32a3 3 0 0 1-3-3v-2a3 3 0 0 1 3-3z" fill="#FCFBF7" />
<path xmlns="http://www.w3.org/2000/svg" d="M63 110H52a1 1 0 0 0-1 1v4a3 3 0 0 0 3 3h9a3 3 0 0 0 3-3v-2a3 3 0 0 0-3-3z" fill="#FCFBF7" />
<path xmlns="http://www.w3.org/2000/svg" d="M33 115h10M53 115h10" fill="none" stroke="#1C1C1A" stroke-width="1.2" /><path d="M28 64Q15 73 4 62" fill="none" stroke="#1C1C1A" stroke-width="12"/><path d="M28 64Q15 73 4 62" fill="none" stroke="#F6D8B8" stroke-width="7.8"/><path d="M68 64Q84 79 85 58" fill="none" stroke="#1C1C1A" stroke-width="12"/><path d="M68 64Q84 79 85 58" fill="none" stroke="#F6D8B8" stroke-width="7.8"/><path xmlns="http://www.w3.org/2000/svg" d="M48 52c-15 0-23 8-23 19l-2 29h50l-2-29c0-11-8-19-23-19z" fill="#3A6EA5" />
<path xmlns="http://www.w3.org/2000/svg" d="M32 55h10l26 41H58z" fill="#E8C547" />
<path xmlns="http://www.w3.org/2000/svg" d="M26 96h44" fill="none" stroke="#FCFBF7" stroke-width="1.3" /><g transform="rotate(0 48 50)"><circle xmlns="http://www.w3.org/2000/svg" cx="48" cy="30" r="25" fill="#F6D8B8" />
<path xmlns="http://www.w3.org/2000/svg" d="M22 28C22 14 33 5 48 5c15 0 25 9 26 23l-7-6-2 5-4-10c-7 7-17 9-28 8l4-6c-5 3-10 6-15 9z" fill="#1C1C1A" stroke="none" />
<circle xmlns="http://www.w3.org/2000/svg" cx="19" cy="38" r="8.5" fill="#1C1C1A" />
<circle xmlns="http://www.w3.org/2000/svg" cx="77" cy="38" r="8.5" fill="#1C1C1A" />
<ellipse xmlns="http://www.w3.org/2000/svg" cx="39" cy="33" fill="#1C1C1A" stroke="none" rx="2.65" ry="3.45" />
<ellipse xmlns="http://www.w3.org/2000/svg" cx="57" cy="33" fill="#1C1C1A" stroke="none" rx="2.65" ry="3.45" />
<path xmlns="http://www.w3.org/2000/svg" d="M42 42q6 6 12 0" fill="none" stroke="#1C1C1A" stroke-width="1.8" />
<circle xmlns="http://www.w3.org/2000/svg" cx="30" cy="39" r="2.8" fill="#D2552A" stroke="none" opacity=".65" />
<circle xmlns="http://www.w3.org/2000/svg" cx="66" cy="39" r="2.8" fill="#D2552A" stroke="none" opacity=".65" />
</g><path d="M84 64l3-18" fill="none" stroke="#1C1C1A" stroke-width="4"/><g transform="rotate(8 88 44)"><rect x="81" y="34" width="14" height="13" rx="6" fill="#FCFBF7"/><path d="M84 38h8M84 42h8" fill="none" stroke="#1C1C1A" stroke-width="1.2"/></g></g></g><text x="630" y="433" font-family="Hiragino Sans, sans-serif" font-size="24" text-anchor="middle" fill="#1C1C1A" stroke="none">伝える・発表</text><rect x="850" y="102" width="380" height="366" rx="22" fill="#E4EFF3"/><g transform="translate(935 142) scale(2.1)"><g stroke="#1C1C1A" stroke-width="2.2" stroke-linecap="round" stroke-linejoin="round"><rect xmlns="http://www.w3.org/2000/svg" x="35" y="94" width="10" height="24" rx="5" fill="#F6D8B8" />
<rect xmlns="http://www.w3.org/2000/svg" x="51" y="94" width="10" height="24" rx="5" fill="#F6D8B8" />
<path xmlns="http://www.w3.org/2000/svg" d="M33 110h11a1 1 0 0 1 1 1v4a3 3 0 0 1-3 3H32a3 3 0 0 1-3-3v-2a3 3 0 0 1 3-3z" fill="#FCFBF7" />
<path xmlns="http://www.w3.org/2000/svg" d="M63 110H52a1 1 0 0 0-1 1v4a3 3 0 0 0 3 3h9a3 3 0 0 0 3-3v-2a3 3 0 0 0-3-3z" fill="#FCFBF7" />
<path xmlns="http://www.w3.org/2000/svg" d="M33 115h10M53 115h10" fill="none" stroke="#1C1C1A" stroke-width="1.2" /><path d="M28 64Q15 77 15 86" fill="none" stroke="#1C1C1A" stroke-width="12"/><path d="M28 64Q15 77 15 86" fill="none" stroke="#F6D8B8" stroke-width="7.8"/><path d="M68 64Q86 79 84 88" fill="none" stroke="#1C1C1A" stroke-width="12"/><path d="M68 64Q86 79 84 88" fill="none" stroke="#F6D8B8" stroke-width="7.8"/><path xmlns="http://www.w3.org/2000/svg" d="M48 52c-15 0-23 8-23 19l-2 29h50l-2-29c0-11-8-19-23-19z" fill="#3A6EA5" />
<path xmlns="http://www.w3.org/2000/svg" d="M32 55h10l26 41H58z" fill="#E8C547" />
<path xmlns="http://www.w3.org/2000/svg" d="M26 96h44" fill="none" stroke="#FCFBF7" stroke-width="1.3" /><g transform="rotate(0 48 50)"><circle xmlns="http://www.w3.org/2000/svg" cx="48" cy="30" r="25" fill="#F6D8B8" />
<path xmlns="http://www.w3.org/2000/svg" d="M22 28C22 14 33 5 48 5c15 0 25 9 26 23l-7-6-2 5-4-10c-7 7-17 9-28 8l4-6c-5 3-10 6-15 9z" fill="#1C1C1A" stroke="none" />
<circle xmlns="http://www.w3.org/2000/svg" cx="19" cy="38" r="8.5" fill="#1C1C1A" />
<circle xmlns="http://www.w3.org/2000/svg" cx="77" cy="38" r="8.5" fill="#1C1C1A" />
<ellipse xmlns="http://www.w3.org/2000/svg" cx="39" cy="33" fill="#1C1C1A" stroke="none" rx="2.65" ry="3.45" />
<ellipse xmlns="http://www.w3.org/2000/svg" cx="57" cy="33" fill="#1C1C1A" stroke="none" rx="2.65" ry="3.45" />
<path xmlns="http://www.w3.org/2000/svg" d="M42 42q6 6 12 0" fill="none" stroke="#1C1C1A" stroke-width="1.8" />
<circle xmlns="http://www.w3.org/2000/svg" cx="30" cy="39" r="2.8" fill="#D2552A" stroke="none" opacity=".65" />
<circle xmlns="http://www.w3.org/2000/svg" cx="66" cy="39" r="2.8" fill="#D2552A" stroke="none" opacity=".65" />
</g><rect x="54" y="68" width="34" height="42" rx="2" fill="#FCFBF7"/><rect x="60" y="76" width="22" height="11" rx="1" fill="#B4D9E5"/><path d="M60 94h22M60 101h15" fill="none" stroke="#3A6EA5" stroke-width="1.8"/><circle cx="85" cy="88" r="4.5" fill="#F6D8B8"/></g></g><text x="1040" y="433" font-family="Hiragino Sans, sans-serif" font-size="24" text-anchor="middle" fill="#1C1C1A" stroke="none">みんなの実践</text><rect x="30" y="506" width="380" height="366" rx="22" fill="#E4EFF3"/><g transform="translate(115 546) scale(2.1)"><g stroke="#1C1C1A" stroke-width="2.2" stroke-linecap="round" stroke-linejoin="round"><rect xmlns="http://www.w3.org/2000/svg" x="35" y="94" width="10" height="24" rx="5" fill="#F6D8B8" />
<rect xmlns="http://www.w3.org/2000/svg" x="51" y="94" width="10" height="24" rx="5" fill="#F6D8B8" />
<path xmlns="http://www.w3.org/2000/svg" d="M33 110h11a1 1 0 0 1 1 1v4a3 3 0 0 1-3 3H32a3 3 0 0 1-3-3v-2a3 3 0 0 1 3-3z" fill="#FCFBF7" />
<path xmlns="http://www.w3.org/2000/svg" d="M63 110H52a1 1 0 0 0-1 1v4a3 3 0 0 0 3 3h9a3 3 0 0 0 3-3v-2a3 3 0 0 0-3-3z" fill="#FCFBF7" />
<path xmlns="http://www.w3.org/2000/svg" d="M33 115h10M53 115h10" fill="none" stroke="#1C1C1A" stroke-width="1.2" /><path d="M28 64Q16 79 25 91" fill="none" stroke="#1C1C1A" stroke-width="12"/><path d="M28 64Q16 79 25 91" fill="none" stroke="#F6D8B8" stroke-width="7.8"/><path d="M68 64Q80 79 71 91" fill="none" stroke="#1C1C1A" stroke-width="12"/><path d="M68 64Q80 79 71 91" fill="none" stroke="#F6D8B8" stroke-width="7.8"/><path xmlns="http://www.w3.org/2000/svg" d="M48 52c-15 0-23 8-23 19l-2 29h50l-2-29c0-11-8-19-23-19z" fill="#3A6EA5" />
<path xmlns="http://www.w3.org/2000/svg" d="M32 55h10l26 41H58z" fill="#E8C547" />
<path xmlns="http://www.w3.org/2000/svg" d="M26 96h44" fill="none" stroke="#FCFBF7" stroke-width="1.3" /><g transform="rotate(0 48 50)"><circle xmlns="http://www.w3.org/2000/svg" cx="48" cy="30" r="25" fill="#F6D8B8" />
<path xmlns="http://www.w3.org/2000/svg" d="M22 28C22 14 33 5 48 5c15 0 25 9 26 23l-7-6-2 5-4-10c-7 7-17 9-28 8l4-6c-5 3-10 6-15 9z" fill="#1C1C1A" stroke="none" />
<circle xmlns="http://www.w3.org/2000/svg" cx="19" cy="38" r="8.5" fill="#1C1C1A" />
<circle xmlns="http://www.w3.org/2000/svg" cx="77" cy="38" r="8.5" fill="#1C1C1A" />
<ellipse xmlns="http://www.w3.org/2000/svg" cx="39" cy="33" fill="#1C1C1A" stroke="none" rx="2.65" ry="3.45" />
<ellipse xmlns="http://www.w3.org/2000/svg" cx="57" cy="33" fill="#1C1C1A" stroke="none" rx="2.65" ry="3.45" />
<path xmlns="http://www.w3.org/2000/svg" d="M42 42q6 6 12 0" fill="none" stroke="#1C1C1A" stroke-width="1.8" />
<circle xmlns="http://www.w3.org/2000/svg" cx="30" cy="39" r="2.8" fill="#D2552A" stroke="none" opacity=".65" />
<circle xmlns="http://www.w3.org/2000/svg" cx="66" cy="39" r="2.8" fill="#D2552A" stroke="none" opacity=".65" />
</g><rect x="21" y="78" width="55" height="35" rx="2" fill="#FCFBF7"/><path d="M22 80l26 20 27-20M21 111l18-17M76 111l-18-17" fill="none" stroke="#3A6EA5" stroke-width="1.7"/><path d="M97 100V78M89 86l8-8 8 8" fill="none" stroke="#3A6EA5" stroke-width="3"/><circle cx="22" cy="95" r="4.5" fill="#F6D8B8"/><circle cx="75" cy="95" r="4.5" fill="#F6D8B8"/></g></g><text x="220" y="837" font-family="Hiragino Sans, sans-serif" font-size="24" text-anchor="middle" fill="#1C1C1A" stroke="none">実践を送る</text><rect x="440" y="506" width="380" height="366" rx="22" fill="#E4EFF3"/><g transform="translate(525 546) scale(2.1)"><g stroke="#1C1C1A" stroke-width="2.2" stroke-linecap="round" stroke-linejoin="round"><rect xmlns="http://www.w3.org/2000/svg" x="35" y="94" width="10" height="24" rx="5" fill="#F6D8B8" />
<rect xmlns="http://www.w3.org/2000/svg" x="51" y="94" width="10" height="24" rx="5" fill="#F6D8B8" />
<path xmlns="http://www.w3.org/2000/svg" d="M33 110h11a1 1 0 0 1 1 1v4a3 3 0 0 1-3 3H32a3 3 0 0 1-3-3v-2a3 3 0 0 1 3-3z" fill="#FCFBF7" />
<path xmlns="http://www.w3.org/2000/svg" d="M63 110H52a1 1 0 0 0-1 1v4a3 3 0 0 0 3 3h9a3 3 0 0 0 3-3v-2a3 3 0 0 0-3-3z" fill="#FCFBF7" />
<path xmlns="http://www.w3.org/2000/svg" d="M33 115h10M53 115h10" fill="none" stroke="#1C1C1A" stroke-width="1.2" /><path d="M28 64Q18 69 8 78" fill="none" stroke="#1C1C1A" stroke-width="12"/><path d="M28 64Q18 69 8 78" fill="none" stroke="#F6D8B8" stroke-width="7.8"/><path d="M68 64Q84 73 100 63" fill="none" stroke="#1C1C1A" stroke-width="12"/><path d="M68 64Q84 73 100 63" fill="none" stroke="#F6D8B8" stroke-width="7.8"/><path xmlns="http://www.w3.org/2000/svg" d="M48 52c-15 0-23 8-23 19l-2 29h50l-2-29c0-11-8-19-23-19z" fill="#3A6EA5" />
<path xmlns="http://www.w3.org/2000/svg" d="M32 55h10l26 41H58z" fill="#E8C547" />
<path xmlns="http://www.w3.org/2000/svg" d="M26 96h44" fill="none" stroke="#FCFBF7" stroke-width="1.3" /><g transform="rotate(0 48 50)"><circle xmlns="http://www.w3.org/2000/svg" cx="48" cy="30" r="25" fill="#F6D8B8" />
<path xmlns="http://www.w3.org/2000/svg" d="M22 28C22 14 33 5 48 5c15 0 25 9 26 23l-7-6-2 5-4-10c-7 7-17 9-28 8l4-6c-5 3-10 6-15 9z" fill="#1C1C1A" stroke="none" />
<circle xmlns="http://www.w3.org/2000/svg" cx="19" cy="38" r="8.5" fill="#1C1C1A" />
<circle xmlns="http://www.w3.org/2000/svg" cx="77" cy="38" r="8.5" fill="#1C1C1A" />
<ellipse xmlns="http://www.w3.org/2000/svg" cx="39" cy="33" fill="#1C1C1A" stroke="none" rx="2.65" ry="3.45" />
<ellipse xmlns="http://www.w3.org/2000/svg" cx="57" cy="33" fill="#1C1C1A" stroke="none" rx="2.65" ry="3.45" />
<path xmlns="http://www.w3.org/2000/svg" d="M42 42q6 6 12 0" fill="none" stroke="#1C1C1A" stroke-width="1.8" />
<circle xmlns="http://www.w3.org/2000/svg" cx="30" cy="39" r="2.8" fill="#D2552A" stroke="none" opacity=".65" />
<circle xmlns="http://www.w3.org/2000/svg" cx="66" cy="39" r="2.8" fill="#D2552A" stroke="none" opacity=".65" />
</g><path d="M91 38h21m-7-7 7 7-7 7" fill="none" stroke="#3A6EA5" stroke-width="3"/></g></g><text x="630" y="837" font-family="Hiragino Sans, sans-serif" font-size="24" text-anchor="middle" fill="#1C1C1A" stroke="none">こちらへどうぞ</text><rect x="850" y="506" width="380" height="366" rx="22" fill="#E4EFF3"/><g transform="translate(935 546) scale(2.1)"><g stroke="#1C1C1A" stroke-width="2.2" stroke-linecap="round" stroke-linejoin="round"><rect xmlns="http://www.w3.org/2000/svg" x="35" y="94" width="10" height="24" rx="5" fill="#F6D8B8" />
<rect xmlns="http://www.w3.org/2000/svg" x="51" y="94" width="10" height="24" rx="5" fill="#F6D8B8" />
<path xmlns="http://www.w3.org/2000/svg" d="M33 110h11a1 1 0 0 1 1 1v4a3 3 0 0 1-3 3H32a3 3 0 0 1-3-3v-2a3 3 0 0 1 3-3z" fill="#FCFBF7" />
<path xmlns="http://www.w3.org/2000/svg" d="M63 110H52a1 1 0 0 0-1 1v4a3 3 0 0 0 3 3h9a3 3 0 0 0 3-3v-2a3 3 0 0 0-3-3z" fill="#FCFBF7" />
<path xmlns="http://www.w3.org/2000/svg" d="M33 115h10M53 115h10" fill="none" stroke="#1C1C1A" stroke-width="1.2" /><path xmlns="http://www.w3.org/2000/svg" d="M48 52c-15 0-23 8-23 19l-2 29h50l-2-29c0-11-8-19-23-19z" fill="#3A6EA5" />
<path xmlns="http://www.w3.org/2000/svg" d="M32 55h10l26 41H58z" fill="#E8C547" />
<path xmlns="http://www.w3.org/2000/svg" d="M26 96h44" fill="none" stroke="#FCFBF7" stroke-width="1.3" /><g transform="rotate(7 48 50)"><g xmlns="http://www.w3.org/2000/svg"><circle cx="48" cy="30" r="25" fill="#F6D8B8" />
<path d="M22 28C22 14 33 5 48 5c15 0 25 9 26 23l-7-6-2 5-4-10c-7 7-17 9-28 8l4-6c-5 3-10 6-15 9z" fill="#1C1C1A" stroke="none" />
<circle cx="19" cy="38" r="8.5" fill="#1C1C1A" />
<circle cx="77" cy="38" r="8.5" fill="#1C1C1A" />
<path d="M36.0 33.0q3 4 6 0" fill="none" stroke="#1C1C1A" stroke-width="1.8" />
<path d="M54.0 33.0q3 4 6 0" fill="none" stroke="#1C1C1A" stroke-width="1.8" />
<path d="M42 42q6 6 12 0" fill="none" stroke="#1C1C1A" stroke-width="1.8" />
<circle cx="30" cy="39" r="2.8" fill="#D2552A" stroke="none" opacity=".65" />
<circle cx="66" cy="39" r="2.8" fill="#D2552A" stroke="none" opacity=".65" />
</g></g><path d="M28 64Q20 82 44 89" fill="none" stroke="#1C1C1A" stroke-width="12"/><path d="M28 64Q20 82 44 89" fill="none" stroke="#F6D8B8" stroke-width="7.8"/><path d="M68 64Q77 82 52 89" fill="none" stroke="#1C1C1A" stroke-width="12"/><path d="M68 64Q77 82 52 89" fill="none" stroke="#F6D8B8" stroke-width="7.8"/></g></g><text x="1040" y="837" font-family="Hiragino Sans, sans-serif" font-size="24" text-anchor="middle" fill="#1C1C1A" stroke="none">ありがとう</text></svg>