<svg viewBox="0 0 620 500" xmlns="http://www.w3.org/2000/svg">
<title>校舎のイラスト</title>
<g stroke="#1C1C1A" stroke-width="2.5" stroke-linecap="round" stroke-linejoin="round">
<rect x="20" y="205" width="580" height="287" rx="4" fill="#FCFBF7"/>
<path d="M10 205L158 142H462L610 205Z" fill="#3A6EA5"/>
<rect x="255" y="108" width="110" height="384" fill="#FCFBF7"/>
<path d="M235 108L310 48L385 108Z" fill="#3A6EA5"/>
<circle cx="310" cy="150" r="31" fill="#E8C547"/>
<path d="M310 150V130M310 150L326 160" fill="none"/>
<g fill="#A9E1F5">
<rect x="43" y="244" width="58" height="58" rx="3"/>
<rect x="119" y="244" width="58" height="58" rx="3"/>
<rect x="195" y="244" width="44" height="58" rx="3"/>
<rect x="381" y="244" width="44" height="58" rx="3"/>
<rect x="443" y="244" width="58" height="58" rx="3"/>
<rect x="519" y="244" width="58" height="58" rx="3"/>
<rect x="43" y="349" width="58" height="58" rx="3"/>
<rect x="119" y="349" width="58" height="58" rx="3"/>
<rect x="195" y="349" width="44" height="58" rx="3"/>
<rect x="381" y="349" width="44" height="58" rx="3"/>
<rect x="443" y="349" width="58" height="58" rx="3"/>
<rect x="519" y="349" width="58" height="58" rx="3"/>
<rect x="278" y="225" width="27" height="54" rx="3"/>
<rect x="315" y="225" width="27" height="54" rx="3"/>
<rect x="278" y="301" width="27" height="54" rx="3"/>
<rect x="315" y="301" width="27" height="54" rx="3"/>
</g>
<path d="M277 405H343V492H277Z" fill="#1F5C3F"/>
<path d="M310 406V492" fill="none"/>
<circle cx="298" cy="451" r="3" fill="#E8C547"/>
<circle cx="322" cy="451" r="3" fill="#E8C547"/>
<path d="M0 492H620" fill="none"/>
</g>
</svg>
